PathFileType	4	(X/Y/Z)	C:\Users\Basilio\Documents\Thesis Gigler\squatting_fais\c3dfiles\019\SLS_front_pre3\markers_experimental.trc
DataRate	CameraRate	NumFrames	NumMarkers	Units	OrigDataRate	OrigDataStartFrame	OrigNumFrames
200.000000	200.000000	4	59	mm	200.000000	658	1316
Frame#	Time	LBHD			RBHD			C7			T10			LSHO			LUUPA			LMUPA			LDUPA			LLEP			LMEP			LRAD			LUL			LRFIN			RSHO			RUPA1			RMUPA			RDUPA			RLEP			RMEP			RRAD			RUL			RUFIN			LASI			RASI			USACR			LSACR			RSACR			LTHI1			LTHI2			LTHI3			LTHI4			LLFC			LTIB1			LTIB2			LTIB3			LTIB4			LLMAL			LMMAL			LHEE			LMT1			LMT2			LMT5			RTHI			RTHI2			RTHI3			RTHI4			RLFC			RTIB1			RTIB2			RTIB3			RTIB4			RLMAL			RMMAL			RHEE			RMT1			RMT2			RMT5			FHD			CLAV			
		X1	Y1	Z1	X2	Y2	Z2	X3	Y3	Z3	X4	Y4	Z4	X5	Y5	Z5	X6	Y6	Z6	X7	Y7	Z7	X8	Y8	Z8	X9	Y9	Z9	X10	Y10	Z10	X11	Y11	Z11	X12	Y12	Z12	X13	Y13	Z13	X14	Y14	Z14	X15	Y15	Z15	X16	Y16	Z16	X17	Y17	Z17	X18	Y18	Z18	X19	Y19	Z19	X20	Y20	Z20	X21	Y21	Z21	X22	Y22	Z22	X23	Y23	Z23	X24	Y24	Z24	X25	Y25	Z25	X26	Y26	Z26	X27	Y27	Z27	X28	Y28	Z28	X29	Y29	Z29	X30	Y30	Z30	X31	Y31	Z31	X32	Y32	Z32	X33	Y33	Z33	X34	Y34	Z34	X35	Y35	Z35	X36	Y36	Z36	X37	Y37	Z37	X38	Y38	Z38	X39	Y39	Z39	X40	Y40	Z40	X41	Y41	Z41	X42	Y42	Z42	X43	Y43	Z43	X44	Y44	Z44	X45	Y45	Z45	X46	Y46	Z46	X47	Y47	Z47	X48	Y48	Z48	X49	Y49	Z49	X50	Y50	Z50	X51	Y51	Z51	X52	Y52	Z52	X53	Y53	Z53	X54	Y54	Z54	X55	Y55	Z55	X56	Y56	Z56	X57	Y57	Z57	X58	Y58	Z58	X59	Y59	Z59	

659	3.29	-323.9509582519532	1354.594970703125	-772.9426269531252	-328.6535034179688	1347.467895507813	-633.2477416992189	-377.7713317871094	1213.765991210938	-695.5328979492189	-543.9401245117189	980.4571533203127	-705.7086181640626	-305.4630737304688	1213.900146484375	-815.7687988281252	-188.4249420166016	1201.12841796875	-869.3011474609377	-162.0133361816407	1182.735229492188	-829.0828857421877	-122.9362335205078	1198.766723632813	-871.973327636719	-52.37922286987306	1183.104370117188	-910.8758544921877	-52.04164505004884	1123.248901367188	-910.204040527344	199.9297790527344	1174.449584960938	-829.355407714844	194.3493957519532	1191.961669921875	-894.856384277344	269.8437194824219	1193.991577148438	-826.417175292969	-289.5085754394532	1207.798950195313	-595.4553222656251	-183.7613983154297	1169.371459960938	-483.053192138672	-161.4471130371094	1190.00732421875	-521.6749267578126	-115.1812973022461	1168.885986328125	-481.9447326660157	-37.32137680053712	1171.422973632813	-494.1693115234376	-41.63958358764649	1111.595336914063	-495.9941406250001	195.4199371337891	1192.062866210938	-595.5667724609376	207.3415679931641	1208.483032226563	-529.1268920898439	279.8236083984376	1213.16162109375	-600.5100097656251	-478.9410400390626	767.4791870117189	-829.2108154296877	-473.5670776367189	750.4476318359376	-625.7290649414064	-613.6655273437501	841.3372802734377	-720.1613769531251	-628.4394531250001	812.2684326171877	-746.0398559570314	-626.2636108398439	811.171569824219	-691.3395385742189	-388.0660400390626	598.3851928710939	-928.566833496094	-303.0715637207032	594.5792846679689	-925.1050415039065	-285.4832763671876	634.9325561523439	-907.1470336914065	-267.7324523925782	544.7551269531251	-920.1006469726565	-187.505599975586	491.0022888183595	-909.6882934570315	-50.01212310791017	431.6871032714845	-886.146179199219	-59.79162979125978	362.7467041015626	-940.4818115234377	-30.57802200317384	386.0164794921876	-916.9888305664065	27.96724700927735	329.2787780761719	-888.165710449219	76.97035217285158	191.4804840087891	-918.182800292969	84.97261047363283	207.4552001953126	-837.4644165039065	39.71875762939454	131.0014038085938	-867.517761230469	231.2188262939454	210.2137451171876	-845.268005371094	239.4954223632813	210.9717254638672	-883.9692993164065	213.600570678711	166.3946685791016	-933.9194946289065	-427.624969482422	598.7211303710939	-559.9098510742189	-362.3031311035157	605.3345947265626	-571.7860717773439	-350.5332641601563	635.5236206054689	-588.0981445312501	-307.0316772460938	543.5000000000001	-577.1769409179689	-206.4046630859376	437.216278076172	-628.5630493164064	-216.8268280029297	281.3534851074219	-710.3211669921876	-294.6925964355469	222.2334136962891	-655.8472290039064	-267.7705688476563	212.7334899902344	-693.9193115234376	-296.1551208496094	185.888671875	-738.5010375976564	-383.6696777343751	123.9465942382813	-692.7950439453126	-367.3383789062501	133.8255615234375	-771.173278808594	-455.5200805664064	105.489372253418	-750.1320800781251	-257.1633300781251	57.56331634521486	-774.155456542969	-252.8836975097657	60.93436431884767	-728.5064086914064	-292.8858337402344	49.25229644775392	-674.3374633789064	-195.3013458251954	1380.277465820313	-628.7517700195314	nan	nan	nan	
660	3.295	-323.4212036132813	1353.4677734375	-773.109313964844	-328.5306701660157	1346.352783203125	-633.3667602539064	-378.4454650878907	1213.312133789063	-695.3304443359376	-544.0627441406251	979.870300292969	-705.7680053710939	-305.2473754882813	1213.084228515625	-815.6311645507815	-188.2205657958985	1200.35107421875	-869.126647949219	-162.1381072998047	1182.14599609375	-829.0267333984377	-123.0059280395508	1198.110717773438	-872.0271606445315	-52.38206481933595	1182.434204101563	-910.8369140625002	-52.0021209716797	1122.501220703125	-910.6455078125002	199.9187316894532	1173.930786132813	-829.4722900390627	194.4624176025391	1191.40771484375	-894.8880004882815	269.8839111328126	1193.466674804688	-826.7102050781252	-287.9315795898438	1206.2734375	-596.0797729492189	-183.6981506347657	1168.426391601563	-483.1890258789064	-161.18115234375	1189.153686523438	-521.7163085937501	-114.8638229370117	1168.409057617188	-482.156951904297	-37.14342498779298	1170.607055664063	-494.3477172851564	-41.52123260498048	1110.595581054688	-496.3686523437501	195.4586944580079	1191.312866210938	-595.8524780273439	208.1146545410157	1207.544799804688	-530.0467529296876	279.1515197753907	1212.535034179688	-600.7199707031251	-479.1245117187501	766.9272460937501	-829.1988525390627	-473.9015502929689	749.8997802734376	-625.8091430664064	-613.7627563476564	840.8134765625002	-720.2257080078126	-628.3767700195314	811.4316406250002	-746.0949707031251	-626.6709594726564	810.677429199219	-691.3664550781251	-388.0534667968751	597.9288330078126	-928.5618896484377	-303.1202392578126	594.2083129882814	-925.0836181640627	-285.6254577636719	634.6198730468751	-906.998718261719	-267.7768249511719	544.4659423828126	-920.0958251953127	-187.5313415527344	490.7666015625001	-909.6856689453127	-50.05345916748048	431.4378662109376	-886.1274414062502	-59.79946899414064	362.5463256835938	-940.513122558594	-30.52766227722169	385.759979248047	-916.9685058593752	28.03391075134278	329.0664672851563	-888.1851806640627	77.04185485839845	191.2417602539063	-918.3566894531252	85.01511383056642	207.1907653808594	-837.531188964844	39.6760597229004	130.882080078125	-867.5772094726565	231.3128662109376	209.7019348144532	-845.4721679687502	239.5284423828126	210.4628601074219	-884.1599731445315	213.5189056396485	166.031982421875	-934.1119384765627	-427.8345642089845	598.2405395507814	-559.9013061523439	-362.5106506347657	604.9024658203126	-571.7283325195314	-351.0240478515626	635.3186645507814	-588.0972900390626	-307.0801086425782	543.2742919921876	-577.0169677734376	-206.3341522216797	437.098114013672	-628.3632812500001	-216.8284912109376	281.2811584472657	-710.2053833007814	-294.4108581542969	221.6374206542969	-655.7565307617189	-267.8153381347657	212.7717895507813	-693.8357543945314	-296.1964416503907	185.9076385498047	-738.4188232421876	-383.6856994628907	123.9128646850586	-692.7189941406251	-367.1528625488282	133.8262939453125	-770.984313964844	-455.5200805664064	105.6104888916016	-750.0552978515626	-257.1745300292969	57.679500579834	-774.1145629882815	-252.7959899902344	60.71590805053712	-728.5623779296876	-292.9456787109376	49.22156524658205	-674.3552856445314	-195.192611694336	1379.475341796875	-628.7922973632814	nan	nan	nan	
661	3.3	-323.1449279785157	1352.63623046875	-773.1194458007815	-328.1858215332032	1345.222045898438	-633.3846435546876	-377.5247192382813	1212.25	-695.4567871093751	-544.1533813476564	979.2460937500002	-705.7163085937501	-305.0407104492188	1212.327758789063	-815.5372314453127	-188.2264709472657	1199.643920898438	-869.0737915039065	-161.6744995117188	1181.236572265625	-828.9751586914065	-122.9610366821289	1197.436157226563	-871.9775390625002	-52.20718383789064	1181.602661132813	-910.8684082031252	-51.9022789001465	1121.798706054688	-910.5208740234377	199.9664611816407	1173.447998046875	-829.6102294921877	194.1351928710938	1190.791381835938	-895.1831054687502	270.0968017578126	1192.9892578125	-826.5747070312502	-289.3355407714844	1206.03466796875	-595.4396362304689	-183.6541595458985	1167.572143554688	-483.291717529297	-161.1289215087891	1188.226196289063	-521.8777465820314	-114.7985000610352	1167.227294921875	-482.3125610351564	-37.10426330566407	1169.753662109375	-494.5961914062501	-41.39034271240235	1109.749877929688	-496.5449218750001	195.6065216064454	1190.272705078125	-594.3354492187501	208.5665130615235	1206.231567382813	-530.0051269531251	279.7955932617188	1211.3984375	-601.1334228515626	-479.3856506347657	766.3541259765626	-829.2856445312502	-474.108123779297	749.3824462890626	-625.7858886718751	-614.0254516601564	840.3001098632815	-720.2352905273439	-628.3550415039064	810.807067871094	-746.1190185546876	-626.9801025390626	810.0969848632815	-691.4948730468751	-388.1964416503907	597.5260620117189	-928.5543212890627	-303.1824340820313	593.8785400390626	-925.039001464844	-285.6910400390626	634.2706298828126	-906.817565917969	-267.8229370117188	544.1769409179689	-920.077575683594	-187.5252685546875	490.446502685547	-909.6754150390627	-50.04909515380861	431.2352294921876	-886.0607910156252	-59.72379684448244	362.2906494140626	-940.5587158203127	-30.51508522033692	385.5503234863282	-917.0046997070315	28.11746978759766	328.7880554199219	-888.1929931640627	76.99237060546876	191.1343078613282	-918.3994140625002	85.12712860107423	207.003402709961	-837.5261230468752	39.41547393798829	130.7469940185547	-867.7452392578127	231.3959655761719	209.0993957519532	-845.5942382812502	239.3008117675782	209.978256225586	-884.6185302734377	213.4143066406251	165.6383819580078	-934.3677368164065	-427.9430236816407	597.6730957031251	-559.7482910156251	-362.7352294921876	604.5292968750001	-571.7051391601564	-351.4455871582032	634.9824218750001	-588.2102661132814	-307.2090148925782	543.0196533203126	-577.0282592773439	-206.2228546142579	437.0594787597657	-628.3146362304689	-216.8077850341797	281.2492980957032	-710.0892944335939	-294.7328796386719	222.2501373291016	-655.6499023437501	-267.8479919433594	212.7736816406251	-693.7385253906251	-296.2447814941407	185.9364471435547	-738.3159790039064	-383.7154541015626	123.8068313598633	-692.5325927734376	-367.1342773437501	133.85009765625	-770.886413574219	-455.4759521484376	105.4633102416992	-750.0107421875001	-257.1264648437501	57.80560302734376	-774.0905761718752	-248.9353179931641	54.98612213134767	-731.8610229492189	-292.9325561523438	49.20729446411134	-674.3468627929689	-194.9162597656251	1378.468383789063	-628.7966308593751	nan	nan	nan	
662	3.305	-323.3424987792969	1351.935424804688	-773.0496826171877	-327.8800048828126	1344.495239257813	-633.2811279296876	-377.5018615722657	1211.451293945313	-695.5534667968751	-544.3163452148439	978.6713867187502	-705.7219238281251	-305.0171508789063	1211.643798828125	-815.4736328125002	-188.2786407470703	1198.915893554688	-869.0781250000002	-161.7499237060547	1180.380859375	-828.825134277344	-122.9062576293946	1196.68505859375	-871.9832763671877	-52.25173187255861	1181.021728515625	-910.8348388671877	-51.9976043701172	1121.087646484375	-910.572937011719	199.8875122070313	1173.121459960938	-829.7854614257815	194.0249328613282	1190.140502929688	-895.2618408203127	270.1682128906251	1192.522583007813	-826.6507568359377	-289.0934753417969	1205.338989257813	-595.4252319335939	-183.4050750732422	1166.633911132813	-483.4185485839845	-161.0709381103516	1187.360961914063	-521.9385986328126	-114.65673828125	1166.079345703125	-482.380340576172	-36.91668319702149	1168.6181640625	-494.7315979003907	-41.09310531616212	1108.938842773438	-496.7767639160157	195.7392883300782	1189.415771484375	-594.8688354492189	208.5394897460938	1205.37060546875	-530.4443359375001	279.6410217285157	1210.7431640625	-601.4817504882814	-479.5649414062501	765.7947998046876	-829.2725219726565	-474.4302673339845	748.7349243164064	-625.8323974609376	-614.3602294921876	839.626647949219	-720.2534179687501	-628.6245727539064	810.1977539062502	-746.1752319335939	-627.2188720703126	809.459411621094	-691.5484619140626	-388.2340393066407	597.1557006835939	-928.5915527343752	-303.2544555664063	593.5946044921876	-924.9940185546877	-285.8388977050782	633.9461669921876	-906.6563110351565	-267.8352966308594	543.8804931640626	-920.057800292969	-187.5992889404297	490.1819152832032	-909.6818847656252	-50.09688949584962	431.0784606933595	-886.0987548828127	-59.46904373168947	362.1989135742188	-940.7637329101565	-30.6911735534668	385.610809326172	-917.1202392578127	28.15891075134278	328.6203918457032	-888.1719970703127	76.94278717041017	191.0181121826172	-918.5256958007815	85.14230346679689	206.7816162109376	-837.6238403320315	39.4940299987793	130.6890411376953	-867.7852172851565	231.529769897461	208.5349578857422	-845.725524902344	239.3154754638672	209.3795928955079	-884.6460571289065	213.3384552001954	165.3310699462891	-934.5376586914065	-428.0798339843751	597.0784912109376	-559.7856445312501	-362.9686279296876	604.1890258789064	-571.7218627929689	-351.5407714843751	634.6066894531251	-588.0717163085939	-307.3638916015626	542.7797241210939	-576.9075317382814	-206.1565246582032	437.0111389160157	-628.1231079101564	-216.7623901367188	281.1822814941407	-709.9345092773439	-294.4392395019532	221.7532958984376	-655.4517822265626	-267.8857727050782	212.754867553711	-693.5569458007814	-296.2626037597657	185.8983001708985	-738.1289062500001	-383.7489624023438	123.7368316650391	-692.3761596679689	-367.1131896972657	133.8453674316407	-770.7648925781252	-455.5681457519532	105.6199340820313	-749.9313964843751	-257.0923156738282	57.98394012451173	-774.0803222656252	-248.9353179931641	54.98612213134767	-731.8610229492189	-293.0405578613282	49.21931457519533	-674.3289184570314	-194.7267150878907	1377.581420898438	-628.7391357421876	nan	nan	nan	
